<svg xmlns="http://www.w3.org/2000/svg" viewBox="0 0 32 32">
  <rect width="32" height="32" fill="#ffffff" rx="4"/>
  <g transform="translate(4, 10)">
    <!-- Car body -->
    <path d="M 2 8 L 4 4 L 8 4 L 10 2 L 14 2 L 16 4 L 20 4 L 22 8 L 22 12 L 20 12 L 20 14 L 18 14 L 18 12 L 6 12 L 6 14 L 4 14 L 4 12 L 2 12 Z" 
          fill="#2563eb" 
          stroke="#2563eb" 
          stroke-width="0.5"/>
    <!-- Windows -->
    <path d="M 9 4 L 11 2.5 L 13 2.5 L 15 4 L 9 4 Z" 
          fill="#dbeafe" 
          opacity="0.8"/>
    <!-- Wheels -->
    <circle cx="7" cy="12" r="1.5" fill="#1e40af"/>
    <circle cx="17" cy="12" r="1.5" fill="#1e40af"/>
    <!-- Wheel centers -->
    <circle cx="7" cy="12" r="0.6" fill="#60a5fa"/>
    <circle cx="17" cy="12" r="0.6" fill="#60a5fa"/>
    <!-- Headlight -->
    <circle cx="21" cy="9" r="0.8" fill="#fbbf24" opacity="0.9"/>
  </g>
</svg>
